<?xml version="1.0" encoding="UTF-8" standalone="no"?>
<!-- Created with Inkscape (http://www.inkscape.org/) -->

<svg
   xmlns:dc="http://purl.org/dc/elements/1.1/"
   xmlns:cc="http://creativecommons.org/ns#"
   xmlns:rdf="http://www.w3.org/1999/02/22-rdf-syntax-ns#"
   xmlns:svg="http://www.w3.org/2000/svg"
   xmlns="http://www.w3.org/2000/svg"
   xmlns:sodipodi="http://sodipodi.sourceforge.net/DTD/sodipodi-0.dtd"
   xmlns:inkscape="http://www.inkscape.org/namespaces/inkscape"
   width="379.04291"
   height="62.4505"
   id="svg2"
   version="1.1"
   inkscape:version="0.48.2 r9819"
   sodipodi:docname="New document 1">
  <defs
     id="defs4">
    <inkscape:path-effect
       is_visible="true"
       id="path-effect3042"
       effect="spiro" />
    <inkscape:path-effect
       effect="spiro"
       id="path-effect3028"
       is_visible="true" />
  </defs>
  <sodipodi:namedview
     id="base"
     pagecolor="#ffffff"
     bordercolor="#666666"
     borderopacity="1.0"
     inkscape:pageopacity="0.0"
     inkscape:pageshadow="2"
     inkscape:zoom="1.4"
     inkscape:cx="253.62286"
     inkscape:cy="24.966251"
     inkscape:document-units="px"
     inkscape:current-layer="layer1"
     showgrid="false"
     fit-margin-top="10"
     fit-margin-left="10"
     fit-margin-bottom="10"
     fit-margin-right="10"
     inkscape:showpageshadow="false"
     inkscape:window-width="909"
     inkscape:window-height="566"
     inkscape:window-x="175"
     inkscape:window-y="175"
     inkscape:window-maximized="0" />
  <metadata
     id="metadata7">
    <rdf:RDF>
      <cc:Work
         rdf:about="">
        <dc:format>image/svg+xml</dc:format>
        <dc:type
           rdf:resource="http://purl.org/dc/dcmitype/StillImage" />
        <dc:title></dc:title>
      </cc:Work>
    </rdf:RDF>
  </metadata>
  <g
     inkscape:label="Layer 1"
     inkscape:groupmode="layer"
     id="layer1"
     transform="translate(-39.871967,-389.21143)">
    <path
       inkscape:connector-curvature="0"
       id="path2990"
       style="font-size:50px;font-style:normal;font-variant:normal;font-weight:bold;font-stretch:normal;line-height:125%;letter-spacing:0px;word-spacing:0px;fill:#ff0000;fill-opacity:1;stroke:#800000;font-family:Helvetica;-inkscape-font-specification:Helvetica"
       d="m 63.621174,399.71143 5.300903,21.20056 6.149292,-21.20056 13.250733,0 0,32.65075 -11.50055,0 0,-10.60028 0.900269,-9.70001 -5.300903,20.30029 -7.049561,0 -5.299377,-20.30029 0.898742,9.70001 0,10.60028 -10.598755,0 0,-32.65075 z" />
    <path
       inkscape:connector-curvature="0"
       id="path2992"
       style="font-size:50px;font-style:normal;font-variant:normal;font-weight:bold;font-stretch:normal;line-height:125%;letter-spacing:0px;word-spacing:0px;fill:#ff0000;fill-opacity:1;stroke:#800000;font-family:Helvetica;-inkscape-font-specification:Helvetica"
       d="m 105.52486,407.66278 c 3.76687,3e-5 7.0002,1.06661 9.70001,3.19977 2.93373,2.30003 4.40061,5.34975 4.40064,9.14917 -3e-5,4.50033 -1.46691,7.91728 -4.40064,10.25085 -2.49941,1.99992 -5.73274,2.99988 -9.70001,2.99988 -4.03342,0 -7.283028,-0.98317 -9.74884,-2.94952 -2.933759,-2.33358 -4.400636,-5.76731 -4.400635,-10.30121 -10e-7,-4.09951 1.466876,-7.24943 4.400635,-9.44977 2.56652,-1.93276 5.81613,-2.89914 9.74884,-2.89917 z m 4.40064,12.34894 c -2e-5,-1.56656 -0.46694,-3.03292 -1.40076,-4.39911 -0.79958,-1.16677 -1.79954,-1.75016 -2.99988,-1.75018 -1.53301,2e-5 -2.71608,0.89977 -3.54919,2.69928 -0.60019,1.26649 -0.90028,2.41649 -0.90027,3.45001 -1e-5,1.46689 0.28329,2.85035 0.84991,4.15039 0.83312,1.9338 2.03297,2.9007 3.59955,2.9007 1.56655,0 2.73334,-0.83364 3.50037,-2.50092 0.60016,-1.30004 0.90025,-2.81676 0.90027,-4.55017 z" />
    <path
       inkscape:connector-curvature="0"
       id="path2994"
       style="font-size:50px;font-style:normal;font-variant:normal;font-weight:bold;font-stretch:normal;line-height:125%;letter-spacing:0px;word-spacing:0px;fill:#ff0000;fill-opacity:1;stroke:#800000;font-family:Helvetica;-inkscape-font-specification:Helvetica"
       d="m 122.88173,408.56152 8.80127,0 0,3.50037 c 0.73241,-1.30003 1.91548,-2.32491 3.5492,-3.07465 1.63369,-0.74969 3.36709,-1.12454 5.20019,-1.12457 2.43325,3e-5 4.46673,0.61648 6.10047,1.84937 1.86663,1.39976 2.79996,3.36661 2.79998,5.90057 l 0,16.74957 -9.70001,0 0,-13.25073 c -2e-5,-1.2329 -0.35021,-2.19928 -1.05057,-2.89917 -0.70039,-0.69985 -1.51699,-1.04979 -2.44979,-1.0498 -0.96641,10e-6 -1.79979,0.34995 -2.50016,1.0498 -0.70039,0.69989 -1.05058,1.66627 -1.05056,2.89917 l 0,13.25073 -9.70002,0 z" />
    <path
       inkscape:connector-curvature="0"
       id="path2996"
       style="font-size:50px;font-style:normal;font-variant:normal;font-weight:bold;font-stretch:normal;line-height:125%;letter-spacing:0px;word-spacing:0px;fill:#ff0000;fill-opacity:1;stroke:#800000;font-family:Helvetica;-inkscape-font-specification:Helvetica"
       d="m 166.3647,407.66278 c 3.76687,3e-5 7.00021,1.06661 9.70002,3.19977 2.93372,2.30003 4.4006,5.34975 4.40063,9.14917 -3e-5,4.50033 -1.46691,7.91728 -4.40063,10.25085 -2.49942,1.99992 -5.73275,2.99988 -9.70002,2.99988 -4.03341,0 -7.28302,-0.98317 -9.74884,-2.94952 -2.93376,-2.33358 -4.40063,-5.76731 -4.40063,-10.30121 0,-4.09951 1.46687,-7.24943 4.40063,-9.44977 2.56652,-1.93276 5.81613,-2.89914 9.74884,-2.89917 z m 4.40064,12.34894 c -2e-5,-1.56656 -0.46694,-3.03292 -1.40076,-4.39911 -0.79958,-1.16677 -1.79953,-1.75016 -2.99988,-1.75018 -1.53301,2e-5 -2.71607,0.89977 -3.54919,2.69928 -0.60019,1.26649 -0.90028,2.41649 -0.90027,3.45001 -1e-5,1.46689 0.28329,2.85035 0.84992,4.15039 0.83311,1.9338 2.03296,2.9007 3.59954,2.9007 1.56656,0 2.73334,-0.83364 3.50037,-2.50092 0.60016,-1.30004 0.90025,-2.81676 0.90027,-4.55017 z" />
    <path
       inkscape:connector-curvature="0"
       id="path2998"
       style="font-size:50px;font-style:normal;font-variant:normal;font-weight:bold;font-stretch:normal;line-height:125%;letter-spacing:0px;word-spacing:0px;fill:#ff0000;fill-opacity:1;stroke:#800000;font-family:Helvetica;-inkscape-font-specification:Helvetica"
       d="m 183.37215,408.56152 8.79974,0 0,3.50037 c 0.83312,-1.30003 1.94981,-2.32491 3.35007,-3.07465 1.40023,-0.74969 2.88364,-1.12454 4.45023,-1.12457 2.69976,3e-5 4.94993,1.01677 6.75049,3.05023 2.06601,2.33258 3.09903,5.66561 3.09906,9.99909 -3e-5,4.03341 -1.04984,7.1167 -3.14942,9.24988 -1.80056,1.83308 -4.03393,2.74963 -6.70013,2.74963 -1.4669,0 -2.81705,-0.28331 -4.05045,-0.84992 -1.23343,-0.5666 -2.18329,-1.34989 -2.84958,-2.34985 l 0,11.4502 -9.70001,0 z m 13.25073,6.15082 c -1.63372,2e-5 -2.81729,0.56663 -3.55072,1.69983 -0.60019,0.93385 -0.90028,2.28375 -0.90027,4.04968 -1e-5,1.46689 0.2833,2.70031 0.84992,3.70026 0.80056,1.36719 2.00092,2.05079 3.60107,2.05078 1.2329,10e-6 2.19929,-0.57499 2.89917,-1.72501 0.69985,-1.14999 1.04979,-2.492 1.04981,-4.02603 -2e-5,-1.53298 -0.34996,-2.87448 -1.04981,-4.0245 -0.69988,-1.14999 -1.66627,-1.72499 -2.89917,-1.72501 z" />
    <path
       inkscape:connector-curvature="0"
       id="path3000"
       style="font-size:50px;font-style:normal;font-variant:normal;font-weight:bold;font-stretch:normal;line-height:125%;letter-spacing:0px;word-spacing:0px;fill:#ff0000;fill-opacity:1;stroke:#800000;font-family:Helvetica;-inkscape-font-specification:Helvetica"
       d="m 226.61861,407.66278 c 3.76687,3e-5 7.0002,1.06661 9.70001,3.19977 2.93373,2.30003 4.40061,5.34975 4.40064,9.14917 -3e-5,4.50033 -1.46691,7.91728 -4.40064,10.25085 -2.49941,1.99992 -5.73274,2.99988 -9.70001,2.99988 -4.03342,0 -7.28303,-0.98317 -9.74884,-2.94952 -2.93376,-2.33358 -4.40064,-5.76731 -4.40063,-10.30121 -1e-5,-4.09951 1.46687,-7.24943 4.40063,-9.44977 2.56652,-1.93276 5.81613,-2.89914 9.74884,-2.89917 z m 4.40064,12.34894 c -2e-5,-1.56656 -0.46694,-3.03292 -1.40076,-4.39911 -0.79958,-1.16677 -1.79954,-1.75016 -2.99988,-1.75018 -1.53301,2e-5 -2.71608,0.89977 -3.54919,2.69928 -0.60019,1.26649 -0.90028,2.41649 -0.90027,3.45001 -1e-5,1.46689 0.28329,2.85035 0.84991,4.15039 0.83312,1.9338 2.03297,2.9007 3.59955,2.9007 1.56655,0 2.73334,-0.83364 3.50037,-2.50092 0.60016,-1.30004 0.90025,-2.81676 0.90027,-4.55017 z" />
    <path
       inkscape:connector-curvature="0"
       id="path3002"
       style="font-size:50px;font-style:normal;font-variant:normal;font-weight:bold;font-stretch:normal;line-height:125%;letter-spacing:0px;word-spacing:0px;fill:#ff0000;fill-opacity:1;stroke:#800000;font-family:Helvetica;-inkscape-font-specification:Helvetica"
       d="m 244.17537,399.71143 9.70002,0 0,32.65075 -9.70002,0 z" />
    <path
       inkscape:connector-curvature="0"
       id="path3004"
       style="font-size:50px;font-style:normal;font-variant:normal;font-weight:bold;font-stretch:normal;line-height:125%;letter-spacing:0px;word-spacing:0px;fill:#ff0000;fill-opacity:1;stroke:#800000;font-family:Helvetica;-inkscape-font-specification:Helvetica"
       d="m 258.39351,415.61261 c 0,-2.36713 0.98317,-4.23378 2.94953,-5.59998 2.26643,-1.56654 5.68338,-2.34982 10.25085,-2.34985 4.53286,3e-5 7.79925,0.76652 9.7992,2.2995 1.6998,1.30007 2.54971,3.18351 2.54974,5.65033 l 0,13.15002 c -3e-5,0.66631 0.0918,1.18282 0.27542,1.54953 0.18359,0.36673 0.67517,0.74998 1.47476,1.14975 l 0,0.90027 -10.54992,0 -0.90027,-2.65045 c -0.69989,0.93384 -1.82472,1.70059 -3.37448,2.30026 -1.5498,0.59967 -3.20818,0.89951 -4.97513,0.89951 -1.60015,0 -3.08356,-0.28331 -4.45023,-0.84992 -1.36668,-0.5666 -2.38317,-1.4333 -3.04947,-2.60009 -0.23397,-0.36621 -0.4425,-0.85754 -0.62561,-1.474 -0.1831,-0.61645 -0.27466,-1.27512 -0.27466,-1.97602 0,-0.89924 0.12512,-1.75729 0.37537,-2.57415 0.25024,-0.81685 0.70851,-1.65862 1.37482,-2.52533 1.03352,-1.39973 3.13364,-2.33306 6.30035,-2.79999 4.4993,-0.66629 6.84915,-1.03301 7.04956,-1.10016 0.53303,-0.0661 0.95798,-0.29092 1.27487,-0.67444 0.31686,-0.38349 0.4753,-0.8087 0.47531,-1.27563 -1e-5,-0.53302 -0.23347,-1.01622 -0.70037,-1.44959 -0.46694,-0.43333 -1.15002,-0.65 -2.04926,-0.65002 -1.30006,2e-5 -2.20847,0.2083 -2.72522,0.62485 -0.51678,0.41658 -0.77516,1.09178 -0.77515,2.0256 z m 15.84931,5.29938 c -0.43337,0.26653 -1.51674,0.71666 -3.25013,1.3504 -2.46583,0.93283 -3.69874,2.03299 -3.69873,3.30048 -1e-5,0.59916 0.27491,1.07397 0.82474,1.4244 0.54981,0.35045 1.20823,0.52567 1.97525,0.52567 0.43334,0 0.89161,-0.0834 1.37482,-0.25024 0.48318,-0.16683 0.85804,-0.3835 1.12457,-0.65003 0.53303,-0.53405 0.95798,-1.25935 1.27487,-2.1759 0.31686,-0.91654 0.4753,-1.77459 0.47531,-2.57416 z" />
    <path
       style="font-size:50px;font-style:normal;font-variant:normal;font-weight:bold;font-stretch:normal;line-height:125%;letter-spacing:0px;word-spacing:0px;fill:#0000ff;fill-opacity:1;stroke:#000080;font-family:Helvetica;-inkscape-font-specification:Helvetica"
       d="m 290.09375,399.71875 0,15.375 c 8.30808,-1.03693 16.93143,0.3438 24.4375,4.0625 0.096,0.0476 0.1856,0.10795 0.28125,0.15625 1.51683,-0.74794 2.76964,-1.80594 3.75,-3.125 1.34986,-1.81628 2.03122,-3.77436 2.03125,-5.875 -3e-5,-2.83303 -1.13984,-5.25006 -3.40625,-7.25 -2.53298,-2.23386 -5.9767,-3.34372 -10.34375,-3.34375 l -16.75,0 z m 10.53125,7.9375 4.46875,0 c 1.23289,3e-5 2.17461,0.33554 2.875,0.96875 0.70036,0.63326 1.06248,1.32546 1.0625,2.125 -2e-5,0.83315 -0.36214,1.57056 -1.0625,2.1875 -0.70039,0.61698 -1.64211,0.93752 -2.875,0.9375 l -4.46875,0 0,-6.21875 z"
       id="path3050"
       inkscape:connector-curvature="0" />
    <path
       style="font-size:50px;font-style:normal;font-variant:normal;font-weight:bold;font-stretch:normal;line-height:125%;letter-spacing:0px;word-spacing:0px;fill:#ff0000;fill-opacity:1;stroke:#800000;font-family:Helvetica;-inkscape-font-specification:Helvetica"
       d="m 290.09375,415.6875 0,16.6875 10.53125,0 0,-10.625 3.5625,0 5.3125,10.625 11.4375,0 -4.0625,-6.3125 c -1.64991,-1.46984 -3.38407,-2.81605 -5.25,-4 -6.4007,-4.06133 -13.95467,-6.27296 -21.53125,-6.375 z"
       id="path3006"
       inkscape:connector-curvature="0" />
    <path
       inkscape:connector-curvature="0"
       id="path3008"
       style="font-size:50px;font-style:normal;font-variant:normal;font-weight:bold;font-stretch:normal;line-height:125%;letter-spacing:0px;word-spacing:0px;fill:#0000ff;fill-opacity:1;stroke:#000080;font-family:Helvetica;-inkscape-font-specification:Helvetica"
       d="m 349.95693,432.36218 -8.79975,0 0,-3.55072 c -0.73345,1.33362 -1.90863,2.37554 -3.52554,3.12577 -1.61694,0.75022 -3.35872,1.12533 -5.22537,1.12533 -2.43328,0 -4.46625,-0.61696 -6.09894,-1.85089 -1.86666,-1.39974 -2.79999,-3.36608 -2.79999,-5.89905 l 0,-16.7511 9.69849,0 0,13.20038 c -10e-6,1.23394 0.35018,2.20923 1.05057,2.92587 0.70036,0.71667 1.53375,1.07499 2.50015,1.07499 0.93382,0 1.75068,-0.35019 2.45056,-1.05057 0.69985,-0.70037 1.04979,-1.6838 1.04981,-2.95029 l 0,-13.20038 9.70001,0 z" />
    <path
       inkscape:connector-curvature="0"
       id="path3010"
       style="font-size:50px;font-style:normal;font-variant:normal;font-weight:bold;font-stretch:normal;line-height:125%;letter-spacing:0px;word-spacing:0px;fill:#0000ff;fill-opacity:1;stroke:#000080;font-family:Helvetica;-inkscape-font-specification:Helvetica"
       d="m 368.84578,415.61261 c -10e-6,-0.83311 -0.35834,-1.46635 -1.07498,-1.89972 -0.71667,-0.43333 -1.55819,-0.65 -2.52457,-0.65002 -0.73345,2e-5 -1.34176,0.11649 -1.82495,0.34942 -0.4832,0.23297 -0.7248,0.58291 -0.72479,1.04981 l 0,0.25024 c 0.20039,0.90029 1.56707,1.73342 4.10004,2.49939 4.06695,1.23394 6.41681,2.00095 7.04956,2.30103 2.63364,1.23292 4.20021,2.86612 4.69971,4.89959 l 0.1007,1.15052 c -2e-5,2.30001 -1.21666,4.15827 -3.6499,5.57479 -2.43329,1.41653 -5.64984,2.12479 -9.64966,2.12479 -7.36695,0 -11.48376,-2.64994 -12.35046,-7.94983 l 9.70001,0 c -10e-6,0.86671 0.33339,1.55005 1.00021,2.05002 0.6668,0.49998 1.44983,0.74997 2.3491,0.74997 0.73342,0 1.38344,-0.17496 1.95007,-0.5249 0.56659,-0.34993 0.8499,-0.8082 0.84991,-1.37482 -10e-6,-0.9674 -1.09152,-1.80104 -3.27453,-2.50091 -2.18304,-0.69987 -4.35792,-1.39973 -6.52466,-2.09961 -2.6001,-1.09964 -4.21702,-2.51617 -4.85077,-4.24958 -0.0326,-0.0671 -0.0989,-0.40078 -0.19913,-1.00097 -0.1002,-0.60017 -0.1503,-1.04979 -0.1503,-1.34888 0,-1.93378 0.73344,-3.53392 2.20032,-4.80042 1.99991,-1.6998 5.09999,-2.54971 9.30023,-2.54974 3.83299,3e-5 6.61619,0.65005 8.34961,1.95007 1.60012,1.19937 2.63364,3.19928 3.10059,5.99976 z" />
    <path
       inkscape:connector-curvature="0"
       id="path3012"
       style="font-size:50px;font-style:normal;font-variant:normal;font-weight:bold;font-stretch:normal;line-height:125%;letter-spacing:0px;word-spacing:0px;fill:#0000ff;fill-opacity:1;stroke:#000080;font-family:Helvetica;-inkscape-font-specification:Helvetica"
       d="m 381.96376,399.71143 9.70002,0 0,12.35046 c 0.70087,-1.30003 1.84274,-2.32491 3.42559,-3.07465 1.58283,-0.74969 3.24095,-1.12454 4.97437,-1.12457 2.29999,3e-5 4.217,0.61648 5.75104,1.84937 1.73337,1.39976 2.60007,3.36661 2.6001,5.90057 l 0,16.74957 -9.70002,0 0,-14.10064 c -2e-5,-1.2329 -0.3502,-2.20768 -1.05056,-2.92435 -0.7004,-0.71664 -1.517,-1.07496 -2.4498,-1.07498 -0.96641,2e-5 -1.79979,0.34995 -2.50016,1.0498 -0.70039,0.69989 -1.05058,1.68306 -1.05056,2.94953 l 0,14.10064 -9.70002,0 z" />
  </g>
</svg>
